<svg fill="#000000" viewBox="0 0 24 24" id="dashboard-alt-3" data-name="Flat Line" xmlns="http://www.w3.org/2000/svg" class="icon flat-line" stroke="#ffffff"><g id="SVGRepo_bgCarrier" stroke-width="0"></g><g id="SVGRepo_tracerCarrier" stroke-linecap="round" stroke-linejoin="round"></g><g id="SVGRepo_iconCarrier"><rect id="secondary" x="3" y="3" width="18" height="14" rx="1" style="fill: #009e662ca9bc; stroke-width: 2;"></rect><path id="primary" d="M10,14a2,2,0,0,1,4,0" style="fill: none; stroke: #009e66; stroke-linecap: round; stroke-linejoin: round; stroke-width: 2;"></path><path id="primary-2" data-name="primary" d="M17,7l-3.84,5.37M21,16V4a1,1,0,0,0-1-1H4A1,1,0,0,0,3,4V16a1,1,0,0,0,1,1H20A1,1,0,0,0,21,16Zm-7,5H10l1-4h2ZM8,21h8" style="fill: none; stroke: #009e66; stroke-linecap: round; stroke-linejoin: round; stroke-width: 2;"></path></g></svg>