<svg viewBox="0 0 48 48" enable-background="new 0 0 48 48" id="Layer_4" version="1.1" xml:space="preserve" xmlns="http://www.w3.org/2000/svg" xmlns:xlink="http://www.w3.org/1999/xlink" fill="#000000"><g id="SVGRepo_bgCarrier" stroke-width="0"></g><g id="SVGRepo_tracerCarrier" stroke-linecap="round" stroke-linejoin="round"></g><g id="SVGRepo_iconCarrier"> <g> <path d="M18.686,6.513H0.001v16.35h10.628c-0.098,10.181-9.584,12.104-9.584,12.104s-0.05,0.341,0,6.521 c15.815-3.034,17.499-14.931,17.636-18.625h0.004v-0.102c0.021-0.632,0-1.028,0-1.028V6.513z" fill="#009e66"></path> <path d="M47.99,21.732V6.513H29.306v16.35h10.629c-0.098,10.181-9.584,12.104-9.584,12.104s-0.05,0.341,0,6.521 c15.815-3.034,17.499-14.931,17.636-18.625h0.004v-0.102C48.011,22.129,47.99,21.732,47.99,21.732z" fill="#009e66"></path> </g> </g></svg>